<svg xmlns="http://www.w3.org/2000/svg" viewBox="0 0 12 12">
  <path d="M8.727 0H3.273C1.463 0 0 1.464 0 3.273v5.455C0 10.534 1.464 12 3.273 12h5.455C10.534 12 12 10.534 12 8.727V3.273C12 1.463 10.534 0 8.727 0zM10.8 8.182c0 1.445-1.173 2.618-2.618 2.618H3.818C2.372 10.8 1.2 9.627 1.2 8.182V3.818C1.2 2.372 2.372 1.2 3.818 1.2h4.364c1.445 0 2.618 1.172 2.618 2.618v4.364z"/>
  <path d="M6.108 8.007c-.11.116-.254.174-.398.174-.145 0-.288-.052-.398-.17L3.437 6.026c-.115-.122-.166-.284-.16-.444.005-.15.056-.29.16-.4.104-.11.24-.164.376-.17.15-.005.304.05.42.17L5.71 6.744 8.313 3.99c.115-.122.268-.175.42-.17.136.008.27.06.375.17.104.11.155.254.16.398.006.16-.044.32-.16.44l-3 3.174z"/>
</svg>