<?xml version="1.0" encoding="utf-8"?>
<!-- Generator: Adobe Illustrator 17.1.0, SVG Export Plug-In . SVG Version: 6.00 Build 0)  -->
<!DOCTYPE svg PUBLIC "-//W3C//DTD SVG 1.1//EN" "http://www.w3.org/Graphics/SVG/1.1/DTD/svg11.dtd">
<svg version="1.1" id="Layer_1" xmlns="http://www.w3.org/2000/svg" xmlns:xlink="http://www.w3.org/1999/xlink" x="0px" y="0px"
	 viewBox="0 0 45 45" enable-background="new 0 0 45 45" xml:space="preserve">
<g>
	<path d="M23.4,19.7c5,0,10,0,15.1,0c1.5,0,2.6,1.2,2.6,2.6c0,1.3-1.1,2.3-2.4,2.4c-0.1,0-0.2,0-0.3,0c-10,0-20,0-30,0
		c-1.5,0-2.6-1-2.6-2.4c0-1.4,1.1-2.6,2.5-2.6c1.6,0,3.1,0,4.7,0C16.3,19.7,19.9,19.7,23.4,19.7z"/>
	<path d="M23.3,36.9c-5,0-10.1,0-15.1,0c-1.1,0-1.9-0.5-2.3-1.5c-0.4-1-0.3-1.9,0.4-2.7c0.5-0.6,1.2-0.9,2-0.9c3.6,0,7.2,0,10.8,0
		c6.5,0,12.9,0,19.4,0c1.4,0,2.6,1.1,2.6,2.5c0,1.4-1.1,2.6-2.5,2.6c-2.7,0-5.4,0-8.2,0C28,36.9,25.7,36.9,23.3,36.9z"/>
	<path d="M23.4,7.6c5,0,10,0,15.1,0c1.5,0,2.6,1.2,2.6,2.6c0,1.3-1.1,2.3-2.4,2.4c-0.1,0-0.2,0-0.3,0c-10,0-20,0-30,0
		c-1.3,0-2.3-0.7-2.6-1.9C5.3,9.2,6.5,7.7,8.2,7.6c1.6,0,3.3,0,4.9,0C16.5,7.6,19.9,7.6,23.4,7.6z"/>
</g>
</svg>
