<svg version="1.1" id="Layer_1" xmlns="http://www.w3.org/2000/svg" xmlns:xlink="http://www.w3.org/1999/xlink" x="0px" y="0px"
	 viewBox="0 0 45 45" enable-background="new 0 0 45 45" xml:space="preserve">
<g>
	<path fill="#0D0F0F" d="M24.8,31.8c-2.1,1.7-4.4,1.5-4.9-1c-0.4-2.5,0.1-8.2,0.1-9.3c0-1.1-0.7-1.1-1.3-0.5c-0.3,0.4-0.7,1-1.1,1.6
		c-0.2-0.2-0.5-0.5-0.8-0.7c0.5-1.1,1.5-2.7,2.9-3.6c1.7-1.2,5.2-1.5,5.1,2.6c0,2.9-0.1,5-0.1,6.5c0,1.5,0.7,1.6,1.2,0.8
		c0.4-0.6,0.9-1.4,1.2-2c0.3,0.3,0.4,0.4,0.8,0.7C27.6,27.9,26.2,30.6,24.8,31.8L24.8,31.8z"/>
	<path fill="#0D0F0F" d="M24.8,13.9c-0.8,1.3-2.4,1.9-3.6,1.3c-1.2-0.6-1.6-2.2-0.9-3.5c0.8-1.3,2.4-1.9,3.6-1.3
		C25.1,11,25.5,12.6,24.8,13.9L24.8,13.9z"/>
</g>
</svg>
