<?xml version="1.0" encoding="utf-8"?>
<!-- Generator: Adobe Illustrator 17.1.0, SVG Export Plug-In . SVG Version: 6.00 Build 0)  -->
<!DOCTYPE svg PUBLIC "-//W3C//DTD SVG 1.1//EN" "http://www.w3.org/Graphics/SVG/1.1/DTD/svg11.dtd">
<svg version="1.1" id="Layer_1" xmlns="http://www.w3.org/2000/svg" xmlns:xlink="http://www.w3.org/1999/xlink" x="0px" y="0px"
	 viewBox="0 0 45 45" enable-background="new 0 0 45 45" xml:space="preserve">
<g>
	<path d="M15,37.3c-3.5-2.2-1.9-5.7-2.3-9c0.8,0,1.4-0.1,2.3-0.1c0,1.2,0,2.3,0,3.3c0,3.5,0,3.5,3.4,3.5c4.1,0,8.3-0.1,12.4,0
		c1.7,0,2.3-0.5,2.3-2.3c-0.1-6.8-0.1-13.7,0-20.5c0-1.7-0.7-2.3-2.3-2.3c-4.5,0.1-8.9,0.1-13.4,0c-1.9,0-2.6,0.7-2.5,2.6
		c0.1,1.3,0,2.6,0,4.1c-0.7,0.1-1.3,0.1-2.3,0.2c0.3-3.3-1.3-6.8,2.3-9.1c6,0,12,0,18,0c1.8,1,2.5,2.5,2.4,4.5
		c-0.1,6.8-0.1,13.7,0,20.5c0,2.1-0.6,3.6-2.4,4.5C27,37.3,21,37.3,15,37.3z"/>
	<path d="M17.2,19.1l0-4.6l9.8,8l-9.9,8l0-4.6l-5.5,0c-1.5,0.1-2.2-0.4-2.2-2.1c-0.1-4.7-0.2-4.7,4.5-4.7L17.2,19.1z"/>
</g>
</svg>
