<?xml version="1.0" encoding="utf-8"?>
<!-- Generator: Adobe Illustrator 17.1.0, SVG Export Plug-In . SVG Version: 6.00 Build 0)  -->
<!DOCTYPE svg PUBLIC "-//W3C//DTD SVG 1.1//EN" "http://www.w3.org/Graphics/SVG/1.1/DTD/svg11.dtd">
<svg version="1.1" id="Layer_1" xmlns="http://www.w3.org/2000/svg" xmlns:xlink="http://www.w3.org/1999/xlink" x="0px" y="0px"
	 viewBox="0 0 45 45" enable-background="new 0 0 45 45" xml:space="preserve">
<g>
	<path d="M20.6,7.5c0.8,0,1.5,0,2.3,0c0.3,0.1,0.6,0.1,0.9,0.2c5.9,0.8,10.9,5.3,12.3,11.1c0.2,0.8,0.3,1.6,0.4,2.4
		c0,0.8,0,1.5,0,2.3c-0.1,0.3-0.1,0.6-0.2,0.9c-0.7,5.9-5.3,10.9-11.1,12.3c-0.8,0.2-1.6,0.3-2.4,0.4c-0.8,0-1.5,0-2.3,0
		c-0.3-0.1-0.6-0.1-0.9-0.2c-5.9-0.8-11-5.3-12.3-11.1C7.3,25,7.1,24.2,7,23.4c0-0.8,0-1.5,0-2.3c0-0.1,0.1-0.3,0.1-0.4
		c0.6-6.2,5.2-11.4,11.2-12.8C19.1,7.7,19.8,7.6,20.6,7.5z M34.2,22.3c0-6.9-5.6-12.5-12.5-12.5c-6.9,0-12.5,5.6-12.5,12.5
		c0,6.9,5.6,12.5,12.5,12.5C28.6,34.7,34.2,29.1,34.2,22.3z"/>
	<path d="M15.6,31.4c-0.4-0.3-0.7-0.5-1.1-0.9c0.5-0.5,0.9-0.9,1.4-1.3c0.4-0.4,0.4-0.8,0.1-1.2c-0.3-0.3-0.8-0.3-1.2,0.1
		c-0.4,0.4-0.8,0.9-1.3,1.4c-1.6-1.9-2.5-4-2.7-6.5c0.6,0,1.1,0,1.7,0c0.2,0,0.4,0,0.5,0c0.4-0.1,0.6-0.4,0.6-0.8
		c-0.1-0.4-0.3-0.6-0.7-0.7c-0.4,0-0.9,0-1.4,0c-0.2,0-0.4,0-0.7,0c0.2-2.5,1.1-4.6,2.7-6.5c0.4,0.5,0.8,0.9,1.2,1.3
		c0.4,0.4,0.9,0.5,1.2,0.1c0.3-0.3,0.3-0.8-0.1-1.2c-0.4-0.4-0.9-0.8-1.3-1.3c1.9-1.6,4-2.5,6.5-2.7c0,0.4,0,0.7,0,1.1
		c0,0.3,0,0.5,0,0.8c0,0.6,0.3,0.9,0.8,0.9c0.5,0,0.7-0.4,0.7-0.9c0-0.6,0-1.2,0-1.8c2.5,0.2,4.6,1.1,6.5,2.7
		c-0.5,0.4-0.9,0.8-1.3,1.2c-0.4,0.4-0.5,0.9-0.1,1.2c0.3,0.3,0.8,0.3,1.2-0.1c0.4-0.4,0.8-0.8,1.2-1.3c1.6,1.9,2.5,4,2.7,6.5
		c-0.4,0-0.7,0-1,0c-0.2,0-0.5,0-0.7,0c-0.6,0-1,0.3-1,0.8c0,0.5,0.4,0.8,1,0.8c0.6,0,1.2,0,1.8,0c-0.2,2.5-1.1,4.6-2.7,6.5
		c-0.4-0.5-0.8-1-1.3-1.4c-0.2-0.2-0.5-0.3-0.7-0.3c-0.2,0-0.5,0.2-0.6,0.4c-0.1,0.3,0,0.6,0.2,0.8c0.4,0.5,0.9,0.9,1.4,1.4
		c-0.4,0.3-0.7,0.6-1.1,0.8c-1.3-2.7-3.3-4.2-6.3-4.2C18.8,27.2,16.8,28.7,15.6,31.4z M24.8,15.4C24.8,15.4,24.8,15.4,24.8,15.4
		c-0.1,0-0.2,0.1-0.2,0.2c-1,1.4-2,2.9-3.1,4.3c-0.1,0.2-0.3,0.3-0.5,0.4c-1,0.4-1.5,1.4-1.2,2.4c0.3,1,1.3,1.6,2.4,1.3
		c1-0.3,1.7-1.3,1.4-2.3c-0.1-0.5-0.1-1,0.1-1.4c0.2-0.8,0.4-1.7,0.6-2.5C24.5,17,24.6,16.2,24.8,15.4z"/>
</g>
</svg>
