<?xml version="1.0" encoding="utf-8"?>
<!-- Generator: Adobe Illustrator 17.1.0, SVG Export Plug-In . SVG Version: 6.00 Build 0)  -->
<!DOCTYPE svg PUBLIC "-//W3C//DTD SVG 1.1//EN" "http://www.w3.org/Graphics/SVG/1.1/DTD/svg11.dtd">
<svg version="1.1" id="Layer_1" xmlns="http://www.w3.org/2000/svg" xmlns:xlink="http://www.w3.org/1999/xlink" x="0px" y="0px"
	 viewBox="0 0 45 45" enable-background="new 0 0 45 45" xml:space="preserve">
<g>
	<path d="M22.8,6.2c0.3,0.1,0.5,0.2,0.8,0.2c1.2,0.3,2.3,0.8,3.3,1.5c2.1,1.6,2.9,3.7,2.5,6.3c0,0.2-0.1,0.4-0.1,0.6
		c1.4,0.4,1.6,0.6,1.4,2.1c-0.1,0.5-0.2,1-0.3,1.5c-0.3,1.1-0.6,1.4-1.8,1.5c-0.3,1.5-0.9,2.8-1.9,4c-0.9,1-2,1.9-3.3,2.4
		c-0.8,0.3-1.6,0.3-2.3,0c-2.5-1.2-4.2-3.1-5-5.8c-0.1-0.4-0.2-0.6-0.6-0.7c-0.5-0.1-0.9-0.5-1.1-1c-0.2-0.9-0.5-1.8-0.6-2.6
		c-0.1-0.8,0.2-1,1-1.2c0.1,0,0.2-0.1,0.3-0.1c0-1.1-0.1-2.3,0-3.4c0.3-2.5,1.6-3.7,4.2-3.9c0.3,0,0.5,0,0.8-0.1
		c0-0.6,0.4-0.9,0.9-1.2C21.6,6.2,22.2,6.2,22.8,6.2z"/>
	<path d="M8.4,33.3c0-0.1,0.1-0.2,0.1-0.3c0.3-1.2,1-2.2,2.1-2.7c1.9-0.8,3.9-1.5,5.8-2.3c0.9,2.4,1.7,4.6,2.5,7
		c0.8-1.3,1.6-2.6,2.3-3.8c-0.3-0.4-0.7-0.8-0.9-1.2c-0.7-1.3-0.3-2.2,1.2-2.4c0.6-0.1,1.2-0.1,1.7,0.1c0.9,0.2,1.3,0.9,0.9,1.8
		c-0.2,0.5-0.6,0.9-0.9,1.4c-0.1,0.1-0.2,0.4-0.2,0.4c0.7,1.2,1.4,2.4,2.2,3.7c0.9-2.4,1.7-4.6,2.5-6.9c1.4,0.5,2.7,0.9,4,1.4
		c0.6,0.2,1.1,0.4,1.7,0.7c1.6,0.8,2.3,2.1,2.4,3.9c0,0.4,0,0.8,0,1.2c0,0.9-0.8,1.8-1.8,1.8c-7.9,0-15.7,0-23.6,0
		c-1.1,0-1.8-0.2-2.3-1.2C8.4,35,8.4,34.2,8.4,33.3z"/>
</g>
</svg>
