<?xml version="1.0" encoding="utf-8"?>
<!-- Generator: Adobe Illustrator 17.1.0, SVG Export Plug-In . SVG Version: 6.00 Build 0)  -->
<!DOCTYPE svg PUBLIC "-//W3C//DTD SVG 1.1//EN" "http://www.w3.org/Graphics/SVG/1.1/DTD/svg11.dtd">
<svg version="1.1" id="Layer_1" xmlns="http://www.w3.org/2000/svg" xmlns:xlink="http://www.w3.org/1999/xlink" x="0px" y="0px"
	 viewBox="0 0 45 45" enable-background="new 0 0 45 45" xml:space="preserve">
<g>
	<path d="M23.2,36.6c-0.5,0-0.9,0-1.4,0c-0.1,0-0.2,0-0.2,0c-0.6-0.1-1.3-0.1-1.9-0.2c-3.2-0.7-5.9-2.2-8-4.6
		c-2.1-2.4-3.3-5.3-3.6-8.5c-0.1-1.5,0-2.9,0.4-4.3c0.8-3.2,2.4-5.8,5-7.9C15.7,9,18.3,8,21.2,7.7c1.5-0.1,3-0.1,4.4,0.3
		c4.3,1,7.5,3.4,9.7,7.2c0.9,1.6,1.4,3.3,1.6,5.1c0,0.4,0.1,0.8,0.1,1.2c0,0.5,0,0.9,0,1.4c0,0.1,0,0.1,0,0.2
		c-0.1,0.8-0.2,1.5-0.3,2.3c-1,4.3-3.5,7.5-7.4,9.6c-1.5,0.8-3.1,1.3-4.8,1.5C24,36.5,23.6,36.5,23.2,36.6z M22.9,28.8
		c0.1,0,0.1,0,0.2,0c2,0,4.1,0,6.1,0c0.2,0,0.3-0.1,0.4-0.3c0.6-1.7,0.9-3.5,1-5.3c0-0.2,0-0.4,0-0.6c-2.6,0-5.1,0-7.7,0
		C22.9,24.6,22.9,26.7,22.9,28.8z M21.8,22.6c-2.5,0-5,0-7.5,0c0.1,2.2,0.4,4.2,1.1,6.2c2.2,0,4.3,0,6.4,0
		C21.8,26.7,21.8,24.6,21.8,22.6z M30.6,21.3c0-0.1,0-0.2,0-0.4c-0.1-0.6-0.1-1.2-0.2-1.7c-0.1-1.2-0.4-2.4-0.8-3.6
		c0-0.1-0.1-0.2-0.3-0.2c-2,0-4,0-6.1,0c-0.1,0-0.1,0-0.3,0c0,1.9,0,3.9,0,5.8C25.5,21.3,28.1,21.3,30.6,21.3z M21.8,15.6
		C21.8,15.6,21.8,15.6,21.8,15.6c-2.2,0-4.3,0-6.4,0c-0.1,0-0.2,0.1-0.2,0.2c-0.1,0.4-0.3,0.9-0.4,1.3c-0.2,1-0.4,2-0.5,3
		c-0.1,0.4-0.1,0.8-0.1,1.3c2.5,0,5,0,7.6,0C21.8,19.4,21.8,17.5,21.8,15.6z M31.8,22.5c0,2.1-0.4,4.2-1,6.2c1.1,0,2.1,0,3.2,0
		c0.1,0,0.1-0.1,0.2-0.1c0.2-0.3,0.3-0.6,0.5-0.9c0.6-1.4,1-2.8,1.2-4.3c0-0.3,0-0.6,0.1-0.9C34.5,22.5,33.1,22.5,31.8,22.5z
		 M21.9,8.9c-0.1,0-0.1,0-0.2,0c-0.6,0.1-1.2,0.3-1.8,0.6c-1.4,0.7-2.4,1.9-3.2,3.2c-0.3,0.6-0.6,1.1-1,1.7c2.1,0,4.1,0,6.1,0
		C21.9,12.5,21.9,10.7,21.9,8.9z M29,29.9c-2.1,0-4.1,0-6.1,0c0,1.8,0,3.6,0,5.4c1-0.1,1.9-0.5,2.7-1c1.2-0.9,2.2-2,2.9-3.3
		C28.7,30.7,28.9,30.3,29,29.9z M23.1,8.8c0,1.9,0,3.7,0,5.5c2,0,4,0,6,0c-0.1-0.3-0.2-0.5-0.3-0.7c-0.8-1.5-1.7-2.8-3.2-3.8
		C24.8,9.3,24,9,23.1,8.8z M13.1,22.6c-1.3,0-2.5,0-3.8,0c0.1,0.5,0.1,1,0.2,1.6c0.2,1.6,0.8,3.1,1.6,4.5c0.1,0.1,0.1,0.2,0.3,0.2
		c0.9,0,1.8,0,2.7,0c0,0,0.1,0,0.1,0C13.5,26.8,13.1,24.7,13.1,22.6z M35.8,21.3c0-0.2,0-0.4,0-0.5c0-0.2-0.1-0.3-0.1-0.5
		c-0.2-1.6-0.7-3.2-1.5-4.6c-0.1-0.1-0.2-0.2-0.3-0.2c-0.9,0-1.9,0-2.8,0c-0.1,0-0.2,0-0.3,0c0.6,1.9,0.9,3.8,1,5.8
		C33.1,21.3,34.4,21.3,35.8,21.3z M15.9,30c0,0.1,0.1,0.1,0.1,0.2c0.4,0.8,0.8,1.5,1.3,2.2c0.8,1.1,1.8,1.9,3,2.5
		c0.5,0.2,0.9,0.4,1.4,0.4c0-1.8,0-3.6,0-5.3C19.8,30,17.8,30,15.9,30z M9.3,21.4c1.2,0,2.5,0,3.7,0c0,0,0.1-0.1,0.1-0.1
		c0-0.3,0-0.5,0.1-0.8c0.1-1.2,0.3-2.3,0.5-3.4c0.1-0.5,0.3-1,0.4-1.4c0,0-0.1,0-0.1,0c-1,0-1.9,0-2.9,0c-0.1,0-0.2,0.1-0.2,0.2
		c-0.5,1-0.9,2-1.2,3.1C9.5,19.7,9.3,20.5,9.3,21.4z M33.3,14.3c-1.6-2.1-3.6-3.7-6-4.6c0,0,0,0.1,0,0.1c1.3,1.3,2.3,2.8,3,4.4
		c0.1,0.1,0.1,0.2,0.2,0.2c0.9,0,1.8,0,2.6,0C33.2,14.3,33.2,14.3,33.3,14.3z M27.3,34.5c2.4-0.9,4.4-2.4,6-4.6c-0.1,0-0.2,0-0.2,0
		c-0.8,0-1.7,0-2.5,0c-0.2,0-0.2,0-0.3,0.2C29.5,31.7,28.6,33.2,27.3,34.5z M11.7,14.4c0.9,0,1.7,0,2.6,0c0.2,0,0.2,0,0.3-0.2
		c0.5-1.2,1.1-2.3,1.9-3.3c0.3-0.3,0.6-0.7,0.9-1C15.1,10.8,13.2,12.3,11.7,14.4z M17.4,34.4c-0.3-0.3-0.5-0.6-0.8-0.8
		c-0.9-1-1.5-2.2-2-3.4C14.6,30,14.5,30,14.4,30c-0.5,0-1,0-1.4,0c-0.3,0-0.7,0-1.1,0C13.3,32,15.2,33.4,17.4,34.4z"/>
</g>
</svg>
