<?xml version="1.0" encoding="utf-8"?>
<!-- Generator: Adobe Illustrator 17.1.0, SVG Export Plug-In . SVG Version: 6.00 Build 0)  -->
<!DOCTYPE svg PUBLIC "-//W3C//DTD SVG 1.1//EN" "http://www.w3.org/Graphics/SVG/1.1/DTD/svg11.dtd">
<svg version="1.1" id="Layer_1" xmlns="http://www.w3.org/2000/svg" xmlns:xlink="http://www.w3.org/1999/xlink" x="0px" y="0px"
	 viewBox="0 0 45 45" enable-background="new 0 0 45 45" xml:space="preserve">
<g>
	<path d="M28.1,29.5c2.5-0.1,4.6-1.8,5.5-4.5c1.2-3.6,0.4-6.8-1.6-9.9c-2.8-4.1-7.8-6.1-12.7-5c-4.7,1-8.6,5.1-9.3,10
		c-1.1,6.8,3.7,13.2,10.5,14.1c0.5,0.1,0.9,0.1,1.4,0.1c0.6,0,1,0.2,1,0.8c0,0.6-0.4,0.9-1,0.8c-3.2-0.1-6.1-1.1-8.6-3.2
		C9.8,29.9,8,26.2,8.1,21.7c0.2-7.1,5.5-12.1,11.5-13.3c6.4-1.2,14.2,2.9,15.9,10.8c0.8,3.7,0.1,7.1-2.6,9.9c-2.4,2.4-5.9,2.8-9.3,1
		c-2.1-1.1-3.8-2.8-5.4-4.5c-1-1.1-2-2.2-2.9-3.3c-1.2-1.5-1.7-3.1-1.2-5c0.5-1.9,2.1-3.2,4.2-3.2c0.2,0,0.5,0.2,0.6,0.3
		c0.5,1,0.9,2,1.2,3c0.2,0.5-0.1,0.9-0.7,1c-0.4,0.1-0.9,0.2-1.3,0.3c-0.7,0.2-0.8,0.6-0.4,1.1c0.2,0.4,0.5,0.7,0.8,1
		c1.7,1.7,3.4,3.4,5.1,5c0.2,0.2,0.3,0.3,0.5,0.4c0.6,0.3,0.9,0.2,1.1-0.4c0.2-0.5,0.3-0.9,0.4-1.4c0.1-0.4,0.3-0.7,0.8-0.6
		c1.2,0.1,2.3,0.6,3.3,1.3c0.2,0.1,0.3,0.4,0.2,0.6c-0.1,1.4-0.5,2.7-1.8,3.6C28.1,29.4,28.1,29.4,28.1,29.5z"/>
	<path d="M22.3,13.8c0-0.5,0-0.8,0-1.2c4.3-0.5,9.9,3.8,9.6,9.5c-0.4,0-0.8,0-1.2,0c-0.1-2.3-0.9-4.3-2.5-5.9
		C26.6,14.7,24.6,13.9,22.3,13.8z"/>
	<path d="M22.3,16.2c0-0.5,0-0.8,0-1.2c3.3-0.7,7.3,3.1,7.2,7.1c-0.4,0-0.8,0-1.3,0c-0.1-1.6-0.6-3-1.8-4.1
		C25.3,16.9,23.9,16.3,22.3,16.2z"/>
</g>
</svg>
