<?xml version="1.0" encoding="utf-8"?>
<!-- Generator: Adobe Illustrator 17.1.0, SVG Export Plug-In . SVG Version: 6.00 Build 0)  -->
<!DOCTYPE svg PUBLIC "-//W3C//DTD SVG 1.1//EN" "http://www.w3.org/Graphics/SVG/1.1/DTD/svg11.dtd">
<svg version="1.1" id="Layer_1" xmlns="http://www.w3.org/2000/svg" xmlns:xlink="http://www.w3.org/1999/xlink" x="0px" y="0px"
	 viewBox="0 0 45 45" enable-background="new 0 0 45 45" xml:space="preserve">
<g>
	<path d="M36.4,12.3c-0.5,0.6-0.9,1.2-1.4,1.9c-1.2-1.1-2.4-2.2-3.7-3.3c0.5-0.5,0.9-1,1.3-1.4c0.3-0.3,0.9-0.3,1.3,0
		c0.8,0.6,1.5,1.3,2.2,2c0.1,0.1,0.2,0.3,0.3,0.5C36.4,12.1,36.4,12.2,36.4,12.3z M33.3,10.1c-0.2,0.2-0.4,0.5-0.6,0.7
		c0.7,0.7,1.5,1.3,2.2,2c0.2-0.3,0.4-0.5,0.6-0.7C34.8,11.4,34,10.8,33.3,10.1z"/>
	<path d="M29.7,12.7c1.2,1.1,2.4,2.2,3.6,3.2c-2.6,2.9-5.1,5.7-7.7,8.6c-1.2-1.1-2.4-2.2-3.6-3.2C24.6,18.4,27.2,15.5,29.7,12.7z
		 M23.9,20.8c-0.2,0.2-0.2,0.4,0,0.6c0.3,0.2,0.4,0.3,0.6,0c1.4-1.6,2.8-3.1,4.2-4.7c0.1-0.1,0.1-0.2,0.2-0.3
		c-0.2-0.1-0.4-0.4-0.6-0.5C28.3,15.9,24,20.7,23.9,20.8 M30.4,14.8C30.4,14.8,30.4,14.7,30.4,14.8c-0.2-0.2-0.3-0.4-0.5-0.5
		c-0.1,0-0.3,0.1-0.4,0.2c-0.1,0.1-0.2,0.2-0.2,0.3c-0.1,0.1-0.1,0.3-0.1,0.4c0.1,0.2,0.3,0.3,0.5,0.3C29.9,15.5,30.4,15,30.4,14.8z
		"/>
	<path d="M25.2,25c-0.1,0-0.1,0.1-0.2,0.1c-1.3,0.5-2.5,1-3.8,1.6c-0.2,0.1-0.4,0.1-0.6,0c-0.2-0.1-0.3-0.3-0.2-0.5
		c0.4-1.4,0.8-2.9,1.2-4.3C22.8,22.8,24,23.9,25.2,25z M21.9,22.9c-0.2,0.6-0.3,1.1-0.5,1.6c0,0.1,0,0.2,0.1,0.2
		c0.2,0.2,0.5,0.5,0.8,0.7c0,0,0.1,0.1,0.2,0.1c0.5-0.2,1-0.4,1.6-0.6C23.3,24.1,22.7,23.5,21.9,22.9z"/>
	<path d="M30.1,12.3c0.3-0.3,0.6-0.6,0.9-1c1.2,1.1,2.4,2.2,3.6,3.2c-0.3,0.3-0.6,0.6-0.9,1C32.5,14.4,31.3,13.4,30.1,12.3z"/>
	<path d="M9.6,15c0.1-0.3,0.2-0.7,0.4-1c0.4-0.6,1-0.9,1.8-0.9c4.8,0,9.6,0,14.4,0c0.4,0,0.8,0,1.2,0.3c-0.6,0.7-1.2,1.3-1.8,2
		c-0.5-0.3-1-0.3-1.5-0.3c-3.5,0-7,0-10.5,0c-0.9,0-1.5,0.5-1.7,1.3c0,0.2,0,0.4,0,0.5c0,4.7,0,9.4,0,14.1c0,1,0.7,1.8,1.8,1.8
		c3.3,0,6.5,0,9.8,0c0.5,0,1,0,1.5,0c0.8,0,1.5-0.7,1.5-1.5c0-1.7,0-3.3,0-5c0-0.4,0.1-0.6,0.4-0.9c0.6-0.6,1.1-1.2,1.7-1.9
		c0,0.2,0,0.2,0,0.3c0,2.9,0,5.9,0,8.8c0,1.4-1,2.3-2.3,2.3c-4.1,0-8.2,0-12.3,0c-0.7,0-1.4,0-2.2,0c-1,0-1.8-0.8-1.9-1.7
		c0-0.1,0-0.1-0.1-0.2C9.6,27.1,9.6,21.1,9.6,15z"/>
	<path d="M23.3,18c-0.6,0.7-1.2,1.3-1.8,1.9c0,0.1-0.2,0.1-0.2,0.1c-2.3,0-4.6,0-6.9,0c-0.6,0-1-0.4-1-1c0-0.6,0.3-1,0.9-1
		c0.1,0,0.2,0,0.3,0c2.8,0,5.6,0,8.4,0C23.1,18,23.2,18,23.3,18z"/>
	<path d="M20.3,21.5c-0.2,0.6-0.4,1.3-0.5,1.9c0,0.2-0.2,0.2-0.3,0.2c-1.4,0-2.7,0-4.1,0c-0.4,0-0.7,0-1.1,0c-0.5,0-0.9-0.5-0.9-1.1
		c0-0.5,0.4-1,1-1C16.3,21.4,18.3,21.4,20.3,21.5C20.3,21.4,20.3,21.4,20.3,21.5z"/>
	<path d="M16.2,27c-0.6,0-1.2,0-1.8,0c-0.5,0-0.9-0.4-1-0.8c-0.1-0.5,0.1-1,0.6-1.1c0.2-0.1,0.3-0.1,0.5-0.1c1.2,0,2.3,0,3.5,0
		c0.5,0,0.9,0.3,1,0.7c0.1,0.4,0,0.9-0.3,1.1c-0.2,0.1-0.5,0.2-0.7,0.3C17.4,27,16.8,27,16.2,27C16.2,27,16.2,27,16.2,27z"/>
</g>
</svg>
